<svg width="214" height="34" viewBox="0 0 214 34" fill="none" xmlns="http://www.w3.org/2000/svg">
<path d="M154.75 11.2316H142.109C137.765 11.2316 132.798 12.6452 132.798 19.7228V24.8176C132.798 31.8358 137.765 33.2494 142.109 33.2494H154.75C159.094 33.2494 164.061 31.8326 164.061 24.8176V19.7228C164.061 12.6484 159.041 11.2316 154.75 11.2316ZM155.538 23.6823C155.538 26.5127 154.463 27.1914 148.988 27.1914H146.958C143.062 27.1914 141.203 26.2844 141.203 23.2288V21.1897C141.203 18.1341 143.121 17.2271 146.958 17.2271H148.988C154.463 17.2271 155.538 17.9057 155.538 20.7362V23.6792V23.6823Z" fill="#081E0A"/>
<path d="M128.802 31.6349C127.612 32.6138 125.921 33.2425 123.726 33.5177C121.562 33.7929 119.201 33.9305 116.638 33.9305C112.982 33.9305 110.145 33.7147 108.133 33.2863C106.121 32.8578 104.521 31.8319 103.334 30.2088C102.145 28.5543 101.55 25.9835 101.55 22.4963C101.55 19.0091 102.204 16.4038 103.515 14.7838C104.857 13.1606 107.218 12.1973 110.603 11.8908L118.102 11.5687C122.614 11.5687 125.906 12.0597 127.977 13.0386C130.051 14.0175 131.085 16.482 131.085 20.4321H123.131C123.041 19.8816 122.932 19.4532 122.81 19.1467C122.689 18.8089 122.446 18.5024 122.078 18.2272C121.714 17.952 121.104 17.7674 120.25 17.6767C119.428 17.5548 118.544 17.4922 117.597 17.4922H116.317C115.037 17.4922 113.941 17.5548 113.026 17.6767C112.141 17.7987 111.44 18.0583 110.923 18.4586C110.407 18.8558 110.039 19.3625 109.827 19.9724C109.644 20.5853 109.553 21.4861 109.553 22.6808C109.553 25.0671 110.086 26.5527 111.154 27.1344C112.222 27.7161 114.094 28.007 116.778 28.007C118.516 28.007 119.827 27.9163 120.711 27.7318C121.627 27.5472 122.234 27.2876 122.539 26.9499C122.845 26.584 123.028 26.2462 123.087 25.9397C123.178 25.6332 123.224 25.2203 123.224 24.7012H131.272C131.272 26.3556 131.119 27.7161 130.814 28.7889C130.509 29.8303 129.839 30.778 128.802 31.6349Z" fill="#081E0A"/>
<path d="M18.682 11.2248H16.1439C12.6436 11.2248 9.0903 12.1318 8.52041 15.4689H8.46436V7.71572H0V32.9048H7.95674V28.9986H8.06262C8.96573 31.657 11.1083 33.2989 16.2467 33.2989H18.7287C29.4508 33.2989 30.7556 29.6772 30.7556 24.1853V20.3384C30.7058 14.8496 29.4041 11.2217 18.682 11.2217V11.2248ZM22.5186 23.5035C22.5186 25.8804 22.1231 27.2378 18.0591 27.2378H13.0951C9.76608 27.2378 7.95984 26.5028 7.95984 23.2752V21.1891C7.95984 17.9584 9.71003 17.2828 13.0951 17.2828H18.0622C22.1262 17.2828 22.5218 18.6402 22.5218 21.0171V23.4972L22.5186 23.5035Z" fill="#081E0A"/>
<path d="M32.0574 11.5726H40.5217V32.9117H32.0574V11.5726Z" fill="#081E0A"/>
<path d="M79.9126 11.2316H77.3184C72.5226 11.2316 70.7164 12.3638 69.3057 16.2106C67.7268 12.8704 64.9645 11.2316 60.9535 11.2316H57.7334C53.5573 11.2316 50.6798 12.7047 50.2282 15.754H50.1192V11.5694H42.0504V32.9085H50.5147V21.6463C50.5147 18.3655 52.2088 17.5148 55.8742 17.5148C61.0095 17.5148 62.0247 18.1935 62.0247 20.7956V32.9085H70.4891V21.1396C70.4891 18.3092 72.1832 17.5179 76.2441 17.5179C81.2112 17.5179 81.9991 18.5375 81.9991 21.4805V32.9711H90.4634V20.9113C90.4043 14.8001 87.5828 11.2347 79.9095 11.2347L79.9126 11.2316Z" fill="#081E0A"/>
<path d="M203.449 11.2316H200.855C196.059 11.2316 194.253 12.3638 192.842 16.2106C191.264 12.8704 188.501 11.2316 184.49 11.2316H181.27C177.094 11.2316 174.217 12.7047 173.765 15.754H173.656V11.5694H165.587V32.9085H174.051V21.6463C174.051 18.3655 175.746 17.5148 179.411 17.5148C184.546 17.5148 185.561 18.1935 185.561 20.7956V32.9085H194.026V21.1396C194.026 18.3092 195.72 17.5179 199.781 17.5179C204.748 17.5179 205.536 18.5375 205.536 21.4805V32.9711H214V20.9113C213.941 14.8001 211.12 11.2347 203.446 11.2347L203.449 11.2316Z" fill="#081E0A"/>
<path d="M40.5217 4.24717C40.5217 3.12126 40.0764 2.04227 39.2823 1.24475C38.4882 0.447231 37.4107 0 36.2896 0C35.1684 0 34.0909 0.447231 33.2968 1.24475C32.5027 2.04227 32.0574 3.12126 32.0574 4.24717C32.0574 5.37308 32.5027 6.45209 33.2968 7.24961C34.0909 8.04713 35.1684 8.49436 36.2896 8.49436C37.4107 8.49436 38.4882 8.04713 39.2823 7.24961C40.0764 6.45209 40.5217 5.37308 40.5217 4.24717Z" fill="#081E0A"/>
<path d="M100.834 28.6643C100.834 27.5384 100.389 26.4594 99.595 25.6619C98.8009 24.8644 97.7234 24.4171 96.6023 24.4171C95.4812 24.4171 94.4037 24.8644 93.6096 25.6619C92.8154 26.4594 92.3701 27.5384 92.3701 28.6643C92.3701 29.7902 92.8154 30.8692 93.6096 31.6667C94.4037 32.4643 95.4812 32.9115 96.6023 32.9115C97.7234 32.9115 98.8009 32.4643 99.595 31.6667C100.389 30.8692 100.834 29.7902 100.834 28.6643Z" fill="#081E0A"/>
</svg>
